<?xml version="1.0" encoding="UTF-8" standalone="no"?>
<!-- ============================================================================================================
	Color Wheel - 32 Colors - Copyright (c) 2021, 2nv2u <info@2nv2u.com> - This work is distributed under GPLv3
============================================================================================================= -->
<svg width="256" height="256" viewBox="0 0 64 64" xmlns:svg="http://www.w3.org/2000/svg" xmlns="http://www.w3.org/2000/svg">
<title>Color Wheel</title>
<style>circle.segment{ stroke-width:32; stroke-dasharray:4.6875 100; fill:transparent; }</style>
<circle cx="32" cy="32" r="32" fill="rgb(150,150,150)" />
<circle cx="32" cy="32" r="31.75" fill="rgb(255,255,255)" />
<g><circle cx="32" cy="32" r="15.5" class="segment" stroke="rgb(255,0.0,0.0)" stroke-dashoffset="-0.0" />
<circle cx="32" cy="32" r="15.5" class="segment" stroke="rgb(255,48.0,0)" stroke-dashoffset="-3.125" />
<circle cx="32" cy="32" r="15.5" class="segment" stroke="rgb(255,96.0,0)" stroke-dashoffset="-6.25" />
<circle cx="32" cy="32" r="15.5" class="segment" stroke="rgb(255,144.0,0)" stroke-dashoffset="-9.375" />
<circle cx="32" cy="32" r="15.5" class="segment" stroke="rgb(255,192.0,0)" stroke-dashoffset="-12.5" />
<circle cx="32" cy="32" r="15.5" class="segment" stroke="rgb(255,240.0,0)" stroke-dashoffset="-15.625" />
<circle cx="32" cy="32" r="15.5" class="segment" stroke="rgb(224.0,255,0)" stroke-dashoffset="-18.75" />
<circle cx="32" cy="32" r="15.5" class="segment" stroke="rgb(176.0,255,0)" stroke-dashoffset="-21.875" />
<circle cx="32" cy="32" r="15.5" class="segment" stroke="rgb(128.0,255,0)" stroke-dashoffset="-25.0" />
<circle cx="32" cy="32" r="15.5" class="segment" stroke="rgb(80.0,255,0)" stroke-dashoffset="-28.125" />
<circle cx="32" cy="32" r="15.5" class="segment" stroke="rgb(32.0,255,0)" stroke-dashoffset="-31.25" />
<circle cx="32" cy="32" r="15.5" class="segment" stroke="rgb(0,255,16.0)" stroke-dashoffset="-34.375" />
<circle cx="32" cy="32" r="15.5" class="segment" stroke="rgb(0,255,64.0)" stroke-dashoffset="-37.5" />
<circle cx="32" cy="32" r="15.5" class="segment" stroke="rgb(0,255,112.0)" stroke-dashoffset="-40.625" />
<circle cx="32" cy="32" r="15.5" class="segment" stroke="rgb(0,255,160.0)" stroke-dashoffset="-43.75" />
<circle cx="32" cy="32" r="15.5" class="segment" stroke="rgb(0,255,208.0)" stroke-dashoffset="-46.875" />
<circle cx="32" cy="32" r="15.5" class="segment" stroke="rgb(0,255,255)" stroke-dashoffset="-50.0" />
<circle cx="32" cy="32" r="15.5" class="segment" stroke="rgb(0,208.0,255)" stroke-dashoffset="-53.125" />
<circle cx="32" cy="32" r="15.5" class="segment" stroke="rgb(0,160.0,255)" stroke-dashoffset="-56.25" />
<circle cx="32" cy="32" r="15.5" class="segment" stroke="rgb(0,112.0,255)" stroke-dashoffset="-59.375" />
<circle cx="32" cy="32" r="15.5" class="segment" stroke="rgb(0,64.0,255)" stroke-dashoffset="-62.5" />
<circle cx="32" cy="32" r="15.5" class="segment" stroke="rgb(0,16.0,255)" stroke-dashoffset="-65.625" />
<circle cx="32" cy="32" r="15.5" class="segment" stroke="rgb(32.0,0,255)" stroke-dashoffset="-68.75" />
<circle cx="32" cy="32" r="15.5" class="segment" stroke="rgb(80.0,0,255)" stroke-dashoffset="-71.875" />
<circle cx="32" cy="32" r="15.5" class="segment" stroke="rgb(128.0,0,255)" stroke-dashoffset="-75.0" />
<circle cx="32" cy="32" r="15.5" class="segment" stroke="rgb(176.0,0,255)" stroke-dashoffset="-78.125" />
<circle cx="32" cy="32" r="15.5" class="segment" stroke="rgb(224.0,0,255)" stroke-dashoffset="-81.25" />
<circle cx="32" cy="32" r="15.5" class="segment" stroke="rgb(255,0,240.0)" stroke-dashoffset="-84.375" />
<circle cx="32" cy="32" r="15.5" class="segment" stroke="rgb(255,0,192.0)" stroke-dashoffset="-87.5" />
<circle cx="32" cy="32" r="15.5" class="segment" stroke="rgb(255,0,144.0)" stroke-dashoffset="-90.625" />
<circle cx="32" cy="32" r="15.5" class="segment" stroke="rgb(255,0,96.0)" stroke-dashoffset="-93.75" />
<circle cx="32" cy="32" r="15.5" class="segment" stroke="rgb(255,0,48.0)" stroke-dashoffset="-96.875" />
</g><g><circle cx="32" cy="32" r="28.0" fill="rgba(255,255,255,0.0)" />
<circle cx="32" cy="32" r="24.0" fill="rgba(255,255,255,0.1562)" />
<circle cx="32" cy="32" r="20.0" fill="rgba(255,255,255,0.3125)" />
<circle cx="32" cy="32" r="16.0" fill="rgba(255,255,255,0.4688)" />
<circle cx="32" cy="32" r="12.0" fill="rgba(255,255,255,0.625)" />
<circle cx="32" cy="32" r="8.0" fill="rgba(255,255,255,0.7812)" />
<circle cx="32" cy="32" r="4.0" fill="rgba(255,255,255,0.9375)" />
<circle cx="32" cy="32" r="0.0" fill="rgba(255,255,255,1.0938)" />
</g></svg>