<?xml version="1.0" encoding="UTF-8" standalone="no"?>
<!-- ============================================================================================================
	Color Wheel - 192 Colors - Copyright (c) 2021, 2nv2u <info@2nv2u.com> - This work is distributed under GPLv3
============================================================================================================= -->
<svg width="256" height="256" viewBox="0 0 64 64" xmlns:svg="http://www.w3.org/2000/svg" xmlns="http://www.w3.org/2000/svg">
<title>Color Wheel</title>
<style>circle.segment{ stroke-width:32; stroke-dasharray:0.78125 100; fill:transparent; }</style>
<circle cx="32" cy="32" r="32" fill="rgb(150,150,150)" />
<circle cx="32" cy="32" r="31.75" fill="rgb(255,255,255)" />
<g><circle cx="32" cy="32" r="15.5" class="segment" stroke="rgb(255,0.0,0.0)" stroke-dashoffset="-0.0" />
<circle cx="32" cy="32" r="15.5" class="segment" stroke="rgb(255,8.0,0)" stroke-dashoffset="-0.5208333333333334" />
<circle cx="32" cy="32" r="15.5" class="segment" stroke="rgb(255,16.0,0)" stroke-dashoffset="-1.0416666666666667" />
<circle cx="32" cy="32" r="15.5" class="segment" stroke="rgb(255,24.0,0)" stroke-dashoffset="-1.5625" />
<circle cx="32" cy="32" r="15.5" class="segment" stroke="rgb(255,32.0,0)" stroke-dashoffset="-2.0833333333333335" />
<circle cx="32" cy="32" r="15.5" class="segment" stroke="rgb(255,40.0,0)" stroke-dashoffset="-2.604166666666667" />
<circle cx="32" cy="32" r="15.5" class="segment" stroke="rgb(255,48.0,0)" stroke-dashoffset="-3.125" />
<circle cx="32" cy="32" r="15.5" class="segment" stroke="rgb(255,56.0,0)" stroke-dashoffset="-3.6458333333333335" />
<circle cx="32" cy="32" r="15.5" class="segment" stroke="rgb(255,64.0,0)" stroke-dashoffset="-4.166666666666667" />
<circle cx="32" cy="32" r="15.5" class="segment" stroke="rgb(255,72.0,0)" stroke-dashoffset="-4.6875" />
<circle cx="32" cy="32" r="15.5" class="segment" stroke="rgb(255,80.0,0)" stroke-dashoffset="-5.208333333333334" />
<circle cx="32" cy="32" r="15.5" class="segment" stroke="rgb(255,88.0,0)" stroke-dashoffset="-5.729166666666667" />
<circle cx="32" cy="32" r="15.5" class="segment" stroke="rgb(255,96.0,0)" stroke-dashoffset="-6.25" />
<circle cx="32" cy="32" r="15.5" class="segment" stroke="rgb(255,104.0,0)" stroke-dashoffset="-6.770833333333334" />
<circle cx="32" cy="32" r="15.5" class="segment" stroke="rgb(255,112.0,0)" stroke-dashoffset="-7.291666666666667" />
<circle cx="32" cy="32" r="15.5" class="segment" stroke="rgb(255,120.0,0)" stroke-dashoffset="-7.812500000000001" />
<circle cx="32" cy="32" r="15.5" class="segment" stroke="rgb(255,128.0,0)" stroke-dashoffset="-8.333333333333334" />
<circle cx="32" cy="32" r="15.5" class="segment" stroke="rgb(255,136.0,0)" stroke-dashoffset="-8.854166666666668" />
<circle cx="32" cy="32" r="15.5" class="segment" stroke="rgb(255,144.0,0)" stroke-dashoffset="-9.375" />
<circle cx="32" cy="32" r="15.5" class="segment" stroke="rgb(255,152.0,0)" stroke-dashoffset="-9.895833333333334" />
<circle cx="32" cy="32" r="15.5" class="segment" stroke="rgb(255,160.0,0)" stroke-dashoffset="-10.416666666666668" />
<circle cx="32" cy="32" r="15.5" class="segment" stroke="rgb(255,168.0,0)" stroke-dashoffset="-10.9375" />
<circle cx="32" cy="32" r="15.5" class="segment" stroke="rgb(255,176.0,0)" stroke-dashoffset="-11.458333333333334" />
<circle cx="32" cy="32" r="15.5" class="segment" stroke="rgb(255,184.0,0)" stroke-dashoffset="-11.979166666666668" />
<circle cx="32" cy="32" r="15.5" class="segment" stroke="rgb(255,192.0,0)" stroke-dashoffset="-12.5" />
<circle cx="32" cy="32" r="15.5" class="segment" stroke="rgb(255,200.0,0)" stroke-dashoffset="-13.020833333333334" />
<circle cx="32" cy="32" r="15.5" class="segment" stroke="rgb(255,208.0,0)" stroke-dashoffset="-13.541666666666668" />
<circle cx="32" cy="32" r="15.5" class="segment" stroke="rgb(255,216.0,0)" stroke-dashoffset="-14.062500000000002" />
<circle cx="32" cy="32" r="15.5" class="segment" stroke="rgb(255,224.0,0)" stroke-dashoffset="-14.583333333333334" />
<circle cx="32" cy="32" r="15.5" class="segment" stroke="rgb(255,232.0,0)" stroke-dashoffset="-15.104166666666668" />
<circle cx="32" cy="32" r="15.5" class="segment" stroke="rgb(255,240.0,0)" stroke-dashoffset="-15.625000000000002" />
<circle cx="32" cy="32" r="15.5" class="segment" stroke="rgb(255,248.0,0)" stroke-dashoffset="-16.145833333333336" />
<circle cx="32" cy="32" r="15.5" class="segment" stroke="rgb(255,255,0)" stroke-dashoffset="-16.666666666666668" />
<circle cx="32" cy="32" r="15.5" class="segment" stroke="rgb(248.0,255,0)" stroke-dashoffset="-17.1875" />
<circle cx="32" cy="32" r="15.5" class="segment" stroke="rgb(240.0,255,0)" stroke-dashoffset="-17.708333333333336" />
<circle cx="32" cy="32" r="15.5" class="segment" stroke="rgb(232.0,255,0)" stroke-dashoffset="-18.229166666666668" />
<circle cx="32" cy="32" r="15.5" class="segment" stroke="rgb(224.0,255,0)" stroke-dashoffset="-18.75" />
<circle cx="32" cy="32" r="15.5" class="segment" stroke="rgb(216.0,255,0)" stroke-dashoffset="-19.270833333333336" />
<circle cx="32" cy="32" r="15.5" class="segment" stroke="rgb(208.0,255,0)" stroke-dashoffset="-19.791666666666668" />
<circle cx="32" cy="32" r="15.5" class="segment" stroke="rgb(200.0,255,0)" stroke-dashoffset="-20.3125" />
<circle cx="32" cy="32" r="15.5" class="segment" stroke="rgb(192.0,255,0)" stroke-dashoffset="-20.833333333333336" />
<circle cx="32" cy="32" r="15.5" class="segment" stroke="rgb(184.0,255,0)" stroke-dashoffset="-21.354166666666668" />
<circle cx="32" cy="32" r="15.5" class="segment" stroke="rgb(176.0,255,0)" stroke-dashoffset="-21.875" />
<circle cx="32" cy="32" r="15.5" class="segment" stroke="rgb(168.0,255,0)" stroke-dashoffset="-22.395833333333336" />
<circle cx="32" cy="32" r="15.5" class="segment" stroke="rgb(160.0,255,0)" stroke-dashoffset="-22.916666666666668" />
<circle cx="32" cy="32" r="15.5" class="segment" stroke="rgb(152.0,255,0)" stroke-dashoffset="-23.4375" />
<circle cx="32" cy="32" r="15.5" class="segment" stroke="rgb(144.0,255,0)" stroke-dashoffset="-23.958333333333336" />
<circle cx="32" cy="32" r="15.5" class="segment" stroke="rgb(136.0,255,0)" stroke-dashoffset="-24.479166666666668" />
<circle cx="32" cy="32" r="15.5" class="segment" stroke="rgb(128.0,255,0)" stroke-dashoffset="-25.0" />
<circle cx="32" cy="32" r="15.5" class="segment" stroke="rgb(120.0,255,0)" stroke-dashoffset="-25.520833333333336" />
<circle cx="32" cy="32" r="15.5" class="segment" stroke="rgb(112.0,255,0)" stroke-dashoffset="-26.041666666666668" />
<circle cx="32" cy="32" r="15.5" class="segment" stroke="rgb(104.0,255,0)" stroke-dashoffset="-26.562500000000004" />
<circle cx="32" cy="32" r="15.5" class="segment" stroke="rgb(96.0,255,0)" stroke-dashoffset="-27.083333333333336" />
<circle cx="32" cy="32" r="15.5" class="segment" stroke="rgb(88.0,255,0)" stroke-dashoffset="-27.604166666666668" />
<circle cx="32" cy="32" r="15.5" class="segment" stroke="rgb(80.0,255,0)" stroke-dashoffset="-28.125000000000004" />
<circle cx="32" cy="32" r="15.5" class="segment" stroke="rgb(72.0,255,0)" stroke-dashoffset="-28.645833333333336" />
<circle cx="32" cy="32" r="15.5" class="segment" stroke="rgb(64.0,255,0)" stroke-dashoffset="-29.166666666666668" />
<circle cx="32" cy="32" r="15.5" class="segment" stroke="rgb(56.0,255,0)" stroke-dashoffset="-29.687500000000004" />
<circle cx="32" cy="32" r="15.5" class="segment" stroke="rgb(48.0,255,0)" stroke-dashoffset="-30.208333333333336" />
<circle cx="32" cy="32" r="15.5" class="segment" stroke="rgb(40.0,255,0)" stroke-dashoffset="-30.729166666666668" />
<circle cx="32" cy="32" r="15.5" class="segment" stroke="rgb(32.0,255,0)" stroke-dashoffset="-31.250000000000004" />
<circle cx="32" cy="32" r="15.5" class="segment" stroke="rgb(24.0,255,0)" stroke-dashoffset="-31.770833333333336" />
<circle cx="32" cy="32" r="15.5" class="segment" stroke="rgb(16.0,255,0)" stroke-dashoffset="-32.29166666666667" />
<circle cx="32" cy="32" r="15.5" class="segment" stroke="rgb(8.0,255,0)" stroke-dashoffset="-32.8125" />
<circle cx="32" cy="32" r="15.5" class="segment" stroke="rgb(0.0,255,0.0)" stroke-dashoffset="-33.333333333333336" />
<circle cx="32" cy="32" r="15.5" class="segment" stroke="rgb(0,255,8.0)" stroke-dashoffset="-33.85416666666667" />
<circle cx="32" cy="32" r="15.5" class="segment" stroke="rgb(0,255,16.0)" stroke-dashoffset="-34.375" />
<circle cx="32" cy="32" r="15.5" class="segment" stroke="rgb(0,255,24.0)" stroke-dashoffset="-34.895833333333336" />
<circle cx="32" cy="32" r="15.5" class="segment" stroke="rgb(0,255,32.0)" stroke-dashoffset="-35.41666666666667" />
<circle cx="32" cy="32" r="15.5" class="segment" stroke="rgb(0,255,40.0)" stroke-dashoffset="-35.9375" />
<circle cx="32" cy="32" r="15.5" class="segment" stroke="rgb(0,255,48.0)" stroke-dashoffset="-36.458333333333336" />
<circle cx="32" cy="32" r="15.5" class="segment" stroke="rgb(0,255,56.0)" stroke-dashoffset="-36.97916666666667" />
<circle cx="32" cy="32" r="15.5" class="segment" stroke="rgb(0,255,64.0)" stroke-dashoffset="-37.5" />
<circle cx="32" cy="32" r="15.5" class="segment" stroke="rgb(0,255,72.0)" stroke-dashoffset="-38.020833333333336" />
<circle cx="32" cy="32" r="15.5" class="segment" stroke="rgb(0,255,80.0)" stroke-dashoffset="-38.54166666666667" />
<circle cx="32" cy="32" r="15.5" class="segment" stroke="rgb(0,255,88.0)" stroke-dashoffset="-39.0625" />
<circle cx="32" cy="32" r="15.5" class="segment" stroke="rgb(0,255,96.0)" stroke-dashoffset="-39.583333333333336" />
<circle cx="32" cy="32" r="15.5" class="segment" stroke="rgb(0,255,104.0)" stroke-dashoffset="-40.10416666666667" />
<circle cx="32" cy="32" r="15.5" class="segment" stroke="rgb(0,255,112.0)" stroke-dashoffset="-40.625" />
<circle cx="32" cy="32" r="15.5" class="segment" stroke="rgb(0,255,120.0)" stroke-dashoffset="-41.145833333333336" />
<circle cx="32" cy="32" r="15.5" class="segment" stroke="rgb(0,255,128.0)" stroke-dashoffset="-41.66666666666667" />
<circle cx="32" cy="32" r="15.5" class="segment" stroke="rgb(0,255,136.0)" stroke-dashoffset="-42.1875" />
<circle cx="32" cy="32" r="15.5" class="segment" stroke="rgb(0,255,144.0)" stroke-dashoffset="-42.708333333333336" />
<circle cx="32" cy="32" r="15.5" class="segment" stroke="rgb(0,255,152.0)" stroke-dashoffset="-43.22916666666667" />
<circle cx="32" cy="32" r="15.5" class="segment" stroke="rgb(0,255,160.0)" stroke-dashoffset="-43.75" />
<circle cx="32" cy="32" r="15.5" class="segment" stroke="rgb(0,255,168.0)" stroke-dashoffset="-44.270833333333336" />
<circle cx="32" cy="32" r="15.5" class="segment" stroke="rgb(0,255,176.0)" stroke-dashoffset="-44.79166666666667" />
<circle cx="32" cy="32" r="15.5" class="segment" stroke="rgb(0,255,184.0)" stroke-dashoffset="-45.3125" />
<circle cx="32" cy="32" r="15.5" class="segment" stroke="rgb(0,255,192.0)" stroke-dashoffset="-45.833333333333336" />
<circle cx="32" cy="32" r="15.5" class="segment" stroke="rgb(0,255,200.0)" stroke-dashoffset="-46.35416666666667" />
<circle cx="32" cy="32" r="15.5" class="segment" stroke="rgb(0,255,208.0)" stroke-dashoffset="-46.875" />
<circle cx="32" cy="32" r="15.5" class="segment" stroke="rgb(0,255,216.0)" stroke-dashoffset="-47.395833333333336" />
<circle cx="32" cy="32" r="15.5" class="segment" stroke="rgb(0,255,224.0)" stroke-dashoffset="-47.91666666666667" />
<circle cx="32" cy="32" r="15.5" class="segment" stroke="rgb(0,255,232.0)" stroke-dashoffset="-48.4375" />
<circle cx="32" cy="32" r="15.5" class="segment" stroke="rgb(0,255,240.0)" stroke-dashoffset="-48.958333333333336" />
<circle cx="32" cy="32" r="15.5" class="segment" stroke="rgb(0,255,248.0)" stroke-dashoffset="-49.47916666666667" />
<circle cx="32" cy="32" r="15.5" class="segment" stroke="rgb(0,255,255)" stroke-dashoffset="-50.0" />
<circle cx="32" cy="32" r="15.5" class="segment" stroke="rgb(0,248.0,255)" stroke-dashoffset="-50.520833333333336" />
<circle cx="32" cy="32" r="15.5" class="segment" stroke="rgb(0,240.0,255)" stroke-dashoffset="-51.04166666666667" />
<circle cx="32" cy="32" r="15.5" class="segment" stroke="rgb(0,232.0,255)" stroke-dashoffset="-51.56250000000001" />
<circle cx="32" cy="32" r="15.5" class="segment" stroke="rgb(0,224.0,255)" stroke-dashoffset="-52.083333333333336" />
<circle cx="32" cy="32" r="15.5" class="segment" stroke="rgb(0,216.0,255)" stroke-dashoffset="-52.60416666666667" />
<circle cx="32" cy="32" r="15.5" class="segment" stroke="rgb(0,208.0,255)" stroke-dashoffset="-53.12500000000001" />
<circle cx="32" cy="32" r="15.5" class="segment" stroke="rgb(0,200.0,255)" stroke-dashoffset="-53.645833333333336" />
<circle cx="32" cy="32" r="15.5" class="segment" stroke="rgb(0,192.0,255)" stroke-dashoffset="-54.16666666666667" />
<circle cx="32" cy="32" r="15.5" class="segment" stroke="rgb(0,184.0,255)" stroke-dashoffset="-54.68750000000001" />
<circle cx="32" cy="32" r="15.5" class="segment" stroke="rgb(0,176.0,255)" stroke-dashoffset="-55.208333333333336" />
<circle cx="32" cy="32" r="15.5" class="segment" stroke="rgb(0,168.0,255)" stroke-dashoffset="-55.72916666666667" />
<circle cx="32" cy="32" r="15.5" class="segment" stroke="rgb(0,160.0,255)" stroke-dashoffset="-56.25000000000001" />
<circle cx="32" cy="32" r="15.5" class="segment" stroke="rgb(0,152.0,255)" stroke-dashoffset="-56.770833333333336" />
<circle cx="32" cy="32" r="15.5" class="segment" stroke="rgb(0,144.0,255)" stroke-dashoffset="-57.29166666666667" />
<circle cx="32" cy="32" r="15.5" class="segment" stroke="rgb(0,136.0,255)" stroke-dashoffset="-57.81250000000001" />
<circle cx="32" cy="32" r="15.5" class="segment" stroke="rgb(0,128.0,255)" stroke-dashoffset="-58.333333333333336" />
<circle cx="32" cy="32" r="15.5" class="segment" stroke="rgb(0,120.0,255)" stroke-dashoffset="-58.85416666666667" />
<circle cx="32" cy="32" r="15.5" class="segment" stroke="rgb(0,112.0,255)" stroke-dashoffset="-59.37500000000001" />
<circle cx="32" cy="32" r="15.5" class="segment" stroke="rgb(0,104.0,255)" stroke-dashoffset="-59.895833333333336" />
<circle cx="32" cy="32" r="15.5" class="segment" stroke="rgb(0,96.0,255)" stroke-dashoffset="-60.41666666666667" />
<circle cx="32" cy="32" r="15.5" class="segment" stroke="rgb(0,88.0,255)" stroke-dashoffset="-60.93750000000001" />
<circle cx="32" cy="32" r="15.5" class="segment" stroke="rgb(0,80.0,255)" stroke-dashoffset="-61.458333333333336" />
<circle cx="32" cy="32" r="15.5" class="segment" stroke="rgb(0,72.0,255)" stroke-dashoffset="-61.97916666666667" />
<circle cx="32" cy="32" r="15.5" class="segment" stroke="rgb(0,64.0,255)" stroke-dashoffset="-62.50000000000001" />
<circle cx="32" cy="32" r="15.5" class="segment" stroke="rgb(0,56.0,255)" stroke-dashoffset="-63.020833333333336" />
<circle cx="32" cy="32" r="15.5" class="segment" stroke="rgb(0,48.0,255)" stroke-dashoffset="-63.54166666666667" />
<circle cx="32" cy="32" r="15.5" class="segment" stroke="rgb(0,40.0,255)" stroke-dashoffset="-64.0625" />
<circle cx="32" cy="32" r="15.5" class="segment" stroke="rgb(0,32.0,255)" stroke-dashoffset="-64.58333333333334" />
<circle cx="32" cy="32" r="15.5" class="segment" stroke="rgb(0,24.0,255)" stroke-dashoffset="-65.10416666666667" />
<circle cx="32" cy="32" r="15.5" class="segment" stroke="rgb(0,16.0,255)" stroke-dashoffset="-65.625" />
<circle cx="32" cy="32" r="15.5" class="segment" stroke="rgb(0,8.0,255)" stroke-dashoffset="-66.14583333333334" />
<circle cx="32" cy="32" r="15.5" class="segment" stroke="rgb(0.0,0.0,255)" stroke-dashoffset="-66.66666666666667" />
<circle cx="32" cy="32" r="15.5" class="segment" stroke="rgb(8.0,0,255)" stroke-dashoffset="-67.1875" />
<circle cx="32" cy="32" r="15.5" class="segment" stroke="rgb(16.0,0,255)" stroke-dashoffset="-67.70833333333334" />
<circle cx="32" cy="32" r="15.5" class="segment" stroke="rgb(24.0,0,255)" stroke-dashoffset="-68.22916666666667" />
<circle cx="32" cy="32" r="15.5" class="segment" stroke="rgb(32.0,0,255)" stroke-dashoffset="-68.75" />
<circle cx="32" cy="32" r="15.5" class="segment" stroke="rgb(40.0,0,255)" stroke-dashoffset="-69.27083333333334" />
<circle cx="32" cy="32" r="15.5" class="segment" stroke="rgb(48.0,0,255)" stroke-dashoffset="-69.79166666666667" />
<circle cx="32" cy="32" r="15.5" class="segment" stroke="rgb(56.0,0,255)" stroke-dashoffset="-70.3125" />
<circle cx="32" cy="32" r="15.5" class="segment" stroke="rgb(64.0,0,255)" stroke-dashoffset="-70.83333333333334" />
<circle cx="32" cy="32" r="15.5" class="segment" stroke="rgb(72.0,0,255)" stroke-dashoffset="-71.35416666666667" />
<circle cx="32" cy="32" r="15.5" class="segment" stroke="rgb(80.0,0,255)" stroke-dashoffset="-71.875" />
<circle cx="32" cy="32" r="15.5" class="segment" stroke="rgb(88.0,0,255)" stroke-dashoffset="-72.39583333333334" />
<circle cx="32" cy="32" r="15.5" class="segment" stroke="rgb(96.0,0,255)" stroke-dashoffset="-72.91666666666667" />
<circle cx="32" cy="32" r="15.5" class="segment" stroke="rgb(104.0,0,255)" stroke-dashoffset="-73.4375" />
<circle cx="32" cy="32" r="15.5" class="segment" stroke="rgb(112.0,0,255)" stroke-dashoffset="-73.95833333333334" />
<circle cx="32" cy="32" r="15.5" class="segment" stroke="rgb(120.0,0,255)" stroke-dashoffset="-74.47916666666667" />
<circle cx="32" cy="32" r="15.5" class="segment" stroke="rgb(128.0,0,255)" stroke-dashoffset="-75.0" />
<circle cx="32" cy="32" r="15.5" class="segment" stroke="rgb(136.0,0,255)" stroke-dashoffset="-75.52083333333334" />
<circle cx="32" cy="32" r="15.5" class="segment" stroke="rgb(144.0,0,255)" stroke-dashoffset="-76.04166666666667" />
<circle cx="32" cy="32" r="15.5" class="segment" stroke="rgb(152.0,0,255)" stroke-dashoffset="-76.5625" />
<circle cx="32" cy="32" r="15.5" class="segment" stroke="rgb(160.0,0,255)" stroke-dashoffset="-77.08333333333334" />
<circle cx="32" cy="32" r="15.5" class="segment" stroke="rgb(168.0,0,255)" stroke-dashoffset="-77.60416666666667" />
<circle cx="32" cy="32" r="15.5" class="segment" stroke="rgb(176.0,0,255)" stroke-dashoffset="-78.125" />
<circle cx="32" cy="32" r="15.5" class="segment" stroke="rgb(184.0,0,255)" stroke-dashoffset="-78.64583333333334" />
<circle cx="32" cy="32" r="15.5" class="segment" stroke="rgb(192.0,0,255)" stroke-dashoffset="-79.16666666666667" />
<circle cx="32" cy="32" r="15.5" class="segment" stroke="rgb(200.0,0,255)" stroke-dashoffset="-79.6875" />
<circle cx="32" cy="32" r="15.5" class="segment" stroke="rgb(208.0,0,255)" stroke-dashoffset="-80.20833333333334" />
<circle cx="32" cy="32" r="15.5" class="segment" stroke="rgb(216.0,0,255)" stroke-dashoffset="-80.72916666666667" />
<circle cx="32" cy="32" r="15.5" class="segment" stroke="rgb(224.0,0,255)" stroke-dashoffset="-81.25" />
<circle cx="32" cy="32" r="15.5" class="segment" stroke="rgb(232.0,0,255)" stroke-dashoffset="-81.77083333333334" />
<circle cx="32" cy="32" r="15.5" class="segment" stroke="rgb(240.0,0,255)" stroke-dashoffset="-82.29166666666667" />
<circle cx="32" cy="32" r="15.5" class="segment" stroke="rgb(248.0,0,255)" stroke-dashoffset="-82.8125" />
<circle cx="32" cy="32" r="15.5" class="segment" stroke="rgb(255,0,255)" stroke-dashoffset="-83.33333333333334" />
<circle cx="32" cy="32" r="15.5" class="segment" stroke="rgb(255,0,248.0)" stroke-dashoffset="-83.85416666666667" />
<circle cx="32" cy="32" r="15.5" class="segment" stroke="rgb(255,0,240.0)" stroke-dashoffset="-84.375" />
<circle cx="32" cy="32" r="15.5" class="segment" stroke="rgb(255,0,232.0)" stroke-dashoffset="-84.89583333333334" />
<circle cx="32" cy="32" r="15.5" class="segment" stroke="rgb(255,0,224.0)" stroke-dashoffset="-85.41666666666667" />
<circle cx="32" cy="32" r="15.5" class="segment" stroke="rgb(255,0,216.0)" stroke-dashoffset="-85.9375" />
<circle cx="32" cy="32" r="15.5" class="segment" stroke="rgb(255,0,208.0)" stroke-dashoffset="-86.45833333333334" />
<circle cx="32" cy="32" r="15.5" class="segment" stroke="rgb(255,0,200.0)" stroke-dashoffset="-86.97916666666667" />
<circle cx="32" cy="32" r="15.5" class="segment" stroke="rgb(255,0,192.0)" stroke-dashoffset="-87.5" />
<circle cx="32" cy="32" r="15.5" class="segment" stroke="rgb(255,0,184.0)" stroke-dashoffset="-88.02083333333334" />
<circle cx="32" cy="32" r="15.5" class="segment" stroke="rgb(255,0,176.0)" stroke-dashoffset="-88.54166666666667" />
<circle cx="32" cy="32" r="15.5" class="segment" stroke="rgb(255,0,168.0)" stroke-dashoffset="-89.0625" />
<circle cx="32" cy="32" r="15.5" class="segment" stroke="rgb(255,0,160.0)" stroke-dashoffset="-89.58333333333334" />
<circle cx="32" cy="32" r="15.5" class="segment" stroke="rgb(255,0,152.0)" stroke-dashoffset="-90.10416666666667" />
<circle cx="32" cy="32" r="15.5" class="segment" stroke="rgb(255,0,144.0)" stroke-dashoffset="-90.625" />
<circle cx="32" cy="32" r="15.5" class="segment" stroke="rgb(255,0,136.0)" stroke-dashoffset="-91.14583333333334" />
<circle cx="32" cy="32" r="15.5" class="segment" stroke="rgb(255,0,128.0)" stroke-dashoffset="-91.66666666666667" />
<circle cx="32" cy="32" r="15.5" class="segment" stroke="rgb(255,0,120.0)" stroke-dashoffset="-92.1875" />
<circle cx="32" cy="32" r="15.5" class="segment" stroke="rgb(255,0,112.0)" stroke-dashoffset="-92.70833333333334" />
<circle cx="32" cy="32" r="15.5" class="segment" stroke="rgb(255,0,104.0)" stroke-dashoffset="-93.22916666666667" />
<circle cx="32" cy="32" r="15.5" class="segment" stroke="rgb(255,0,96.0)" stroke-dashoffset="-93.75" />
<circle cx="32" cy="32" r="15.5" class="segment" stroke="rgb(255,0,88.0)" stroke-dashoffset="-94.27083333333334" />
<circle cx="32" cy="32" r="15.5" class="segment" stroke="rgb(255,0,80.0)" stroke-dashoffset="-94.79166666666667" />
<circle cx="32" cy="32" r="15.5" class="segment" stroke="rgb(255,0,72.0)" stroke-dashoffset="-95.3125" />
<circle cx="32" cy="32" r="15.5" class="segment" stroke="rgb(255,0,64.0)" stroke-dashoffset="-95.83333333333334" />
<circle cx="32" cy="32" r="15.5" class="segment" stroke="rgb(255,0,56.0)" stroke-dashoffset="-96.35416666666667" />
<circle cx="32" cy="32" r="15.5" class="segment" stroke="rgb(255,0,48.0)" stroke-dashoffset="-96.875" />
<circle cx="32" cy="32" r="15.5" class="segment" stroke="rgb(255,0,40.0)" stroke-dashoffset="-97.39583333333334" />
<circle cx="32" cy="32" r="15.5" class="segment" stroke="rgb(255,0,32.0)" stroke-dashoffset="-97.91666666666667" />
<circle cx="32" cy="32" r="15.5" class="segment" stroke="rgb(255,0,24.0)" stroke-dashoffset="-98.4375" />
<circle cx="32" cy="32" r="15.5" class="segment" stroke="rgb(255,0,16.0)" stroke-dashoffset="-98.95833333333334" />
<circle cx="32" cy="32" r="15.5" class="segment" stroke="rgb(255,0,8.0)" stroke-dashoffset="-99.47916666666667" />
</g><g><circle cx="32" cy="32" r="31.3333" fill="rgba(255,255,255,0.0)" />
<circle cx="32" cy="32" r="30.6667" fill="rgba(255,255,255,0.0042)" />
<circle cx="32" cy="32" r="30.0" fill="rgba(255,255,255,0.0083)" />
<circle cx="32" cy="32" r="29.3333" fill="rgba(255,255,255,0.0125)" />
<circle cx="32" cy="32" r="28.6667" fill="rgba(255,255,255,0.0167)" />
<circle cx="32" cy="32" r="28.0" fill="rgba(255,255,255,0.0208)" />
<circle cx="32" cy="32" r="27.3333" fill="rgba(255,255,255,0.025)" />
<circle cx="32" cy="32" r="26.6667" fill="rgba(255,255,255,0.0292)" />
<circle cx="32" cy="32" r="26.0" fill="rgba(255,255,255,0.0333)" />
<circle cx="32" cy="32" r="25.3333" fill="rgba(255,255,255,0.0375)" />
<circle cx="32" cy="32" r="24.6667" fill="rgba(255,255,255,0.0417)" />
<circle cx="32" cy="32" r="24.0" fill="rgba(255,255,255,0.0458)" />
<circle cx="32" cy="32" r="23.3333" fill="rgba(255,255,255,0.05)" />
<circle cx="32" cy="32" r="22.6667" fill="rgba(255,255,255,0.0542)" />
<circle cx="32" cy="32" r="22.0" fill="rgba(255,255,255,0.0583)" />
<circle cx="32" cy="32" r="21.3333" fill="rgba(255,255,255,0.0625)" />
<circle cx="32" cy="32" r="20.6667" fill="rgba(255,255,255,0.0667)" />
<circle cx="32" cy="32" r="20.0" fill="rgba(255,255,255,0.0708)" />
<circle cx="32" cy="32" r="19.3333" fill="rgba(255,255,255,0.075)" />
<circle cx="32" cy="32" r="18.6667" fill="rgba(255,255,255,0.0792)" />
<circle cx="32" cy="32" r="18.0" fill="rgba(255,255,255,0.0833)" />
<circle cx="32" cy="32" r="17.3333" fill="rgba(255,255,255,0.0875)" />
<circle cx="32" cy="32" r="16.6667" fill="rgba(255,255,255,0.0917)" />
<circle cx="32" cy="32" r="16.0" fill="rgba(255,255,255,0.0958)" />
<circle cx="32" cy="32" r="15.3333" fill="rgba(255,255,255,0.1)" />
<circle cx="32" cy="32" r="14.6667" fill="rgba(255,255,255,0.1042)" />
<circle cx="32" cy="32" r="14.0" fill="rgba(255,255,255,0.1083)" />
<circle cx="32" cy="32" r="13.3333" fill="rgba(255,255,255,0.1125)" />
<circle cx="32" cy="32" r="12.6667" fill="rgba(255,255,255,0.1167)" />
<circle cx="32" cy="32" r="12.0" fill="rgba(255,255,255,0.1208)" />
<circle cx="32" cy="32" r="11.3333" fill="rgba(255,255,255,0.125)" />
<circle cx="32" cy="32" r="10.6667" fill="rgba(255,255,255,0.1292)" />
<circle cx="32" cy="32" r="10.0" fill="rgba(255,255,255,0.1333)" />
<circle cx="32" cy="32" r="9.3333" fill="rgba(255,255,255,0.1375)" />
<circle cx="32" cy="32" r="8.6667" fill="rgba(255,255,255,0.1417)" />
<circle cx="32" cy="32" r="8.0" fill="rgba(255,255,255,0.1458)" />
<circle cx="32" cy="32" r="7.3333" fill="rgba(255,255,255,0.15)" />
<circle cx="32" cy="32" r="6.6667" fill="rgba(255,255,255,0.1542)" />
<circle cx="32" cy="32" r="6.0" fill="rgba(255,255,255,0.1583)" />
<circle cx="32" cy="32" r="5.3333" fill="rgba(255,255,255,0.1625)" />
<circle cx="32" cy="32" r="4.6667" fill="rgba(255,255,255,0.1667)" />
<circle cx="32" cy="32" r="4.0" fill="rgba(255,255,255,0.1708)" />
<circle cx="32" cy="32" r="3.3333" fill="rgba(255,255,255,0.175)" />
<circle cx="32" cy="32" r="2.6667" fill="rgba(255,255,255,0.1792)" />
<circle cx="32" cy="32" r="2.0" fill="rgba(255,255,255,0.1833)" />
<circle cx="32" cy="32" r="1.3333" fill="rgba(255,255,255,0.1875)" />
<circle cx="32" cy="32" r="0.6667" fill="rgba(255,255,255,0.1917)" />
<circle cx="32" cy="32" r="0.0" fill="rgba(255,255,255,0.1958)" />
</g></svg>